<?xml version="1.0" standalone="no"?>
<!DOCTYPE svg PUBLIC "-//W3C//DTD SVG 20010904//EN"
 "http://www.w3.org/TR/2001/REC-SVG-20010904/DTD/svg10.dtd">
<svg version="1.0" xmlns="http://www.w3.org/2000/svg"
 width="300.000000pt" height="300.000000pt" viewBox="0 0 300.000000 300.000000"
 preserveAspectRatio="xMidYMid meet">
<metadata>
Created by potrace 1.10, written by Peter Selinger 2001-2011
</metadata>
<g transform="translate(0.000000,300.000000) scale(0.100000,-0.100000)"
fill="#000000" stroke="none">
<path d="M758 2993 c408 -2 1076 -2 1485 0 408 1 74 2 -743 2 -817 0 -1151 -1
-742 -2z"/>
<path d="M5 1505 c0 -814 1 -1146 2 -737 2 409 2 1075 0 1480 -1 405 -2 71 -2
-743z"/>
<path d="M2995 1500 c0 -817 1 -1151 2 -743 2 409 2 1077 0 1485 -1 409 -2 75
-2 -742z"/>
<path d="M1029 2568 c-32 -175 -11 -402 48 -540 24 -55 32 -62 168 -159 109
-76 146 -108 155 -132 48 -129 62 -125 19 5 -25 75 -37 99 -59 111 -46 28
-156 152 -193 219 -73 131 -117 306 -117 457 l1 76 29 -72 c28 -69 181 -393
200 -423 17 -28 62 -125 76 -165 7 -22 25 -62 39 -90 13 -27 42 -88 63 -135
22 -47 49 -96 62 -110 12 -14 32 -36 44 -50 30 -37 55 -50 28 -15 -12 15 -20
31 -17 34 4 3 10 -1 15 -9 7 -11 10 -11 10 -2 0 7 -11 18 -25 24 -40 18 -126
172 -200 357 -33 82 -316 675 -328 688 -3 2 -11 -29 -18 -69z m71 -433 c6 -19
40 -77 75 -130 35 -52 62 -95 59 -95 -2 0 -27 17 -54 37 -50 37 -73 81 -100
191 -11 43 5 41 20 -3z"/>
<path d="M1920 2205 c-67 -78 -123 -178 -139 -248 -11 -48 -9 -59 19 -142 26
-76 30 -99 24 -148 -3 -31 -9 -59 -13 -62 -20 -11 -82 110 -100 193 -13 61
-15 241 -3 227 5 -6 15 -30 22 -55 7 -25 15 -39 17 -33 3 7 -5 43 -17 79 -26
78 -32 74 -56 -42 -10 -50 -15 -106 -12 -155 l5 -77 71 -90 72 -89 -13 -44
-13 -44 -53 50 c-58 54 -107 131 -140 218 -29 79 -27 87 13 41 53 -61 52 -35
-1 35 l-48 62 -3 -36 c-4 -46 22 -174 47 -231 16 -36 35 -53 115 -105 53 -33
93 -65 90 -70 -3 -5 -9 -7 -14 -4 -4 3 -10 -4 -13 -15 -3 -11 -1 -20 4 -20 5
0 9 3 9 8 0 4 16 18 35 31 31 21 35 29 35 65 0 65 19 204 40 286 10 41 33 158
50 260 17 102 33 193 36 203 10 31 -10 17 -66 -48z m39 -7 c-16 -55 -48 -235
-70 -385 -6 -46 -15 -83 -19 -83 -13 0 -30 87 -30 157 0 107 38 225 102 316
25 35 29 34 17 -5z m-97 -530 c-6 -24 -14 -77 -18 -119 -7 -77 -17 -110 -30
-96 -16 16 -4 84 43 250 11 37 15 6 5 -35z"/>
<path d="M864 2115 c33 -129 128 -306 214 -394 l57 -59 139 -37 c76 -20 156
-43 177 -51 44 -15 45 -14 23 28 -11 21 -18 27 -24 18 -11 -17 -61 -5 -141 35
-122 62 -225 152 -321 280 -67 89 -124 191 -92 164 11 -8 44 -36 74 -61 31
-26 69 -50 85 -54 28 -6 27 -4 -15 28 -25 19 -76 56 -114 83 l-69 49 7 -29z
m246 -347 c51 -45 139 -108 151 -108 5 0 9 -4 9 -9 0 -5 -25 -1 -56 8 -42 13
-65 29 -94 62 -22 24 -39 49 -40 56 0 6 -6 14 -12 16 -7 3 -9 6 -4 6 5 1 25
-14 46 -31z"/>
<path d="M840 1741 c0 -3 31 -42 69 -87 76 -89 198 -192 270 -228 45 -22 49
-23 211 -13 91 5 166 10 167 11 3 2 -55 115 -64 125 -1 2 -6 2 -9 -2 -3 -3 6
-25 20 -50 14 -24 26 -47 26 -50 0 -12 -107 -7 -180 8 -135 28 -320 123 -420
214 -43 39 -39 43 15 21 80 -32 141 -45 149 -31 4 6 -23 19 -66 31 -40 12 -99
29 -130 39 -32 10 -58 15 -58 12z m407 -272 c46 -16 95 -30 110 -30 16 -1 -1
-5 -37 -9 -72 -8 -93 -3 -130 32 -14 14 -34 30 -45 37 -23 15 -32 17 102 -30z"/>
<path d="M1932 1509 c-24 -12 -41 -24 -38 -26 2 -2 17 2 33 10 41 22 94 30
123 19 22 -8 19 -10 -30 -17 -30 -4 -81 -18 -113 -32 -61 -28 -74 -43 -14 -18
53 22 128 37 154 30 22 -5 23 -7 8 -35 -8 -16 -15 -35 -15 -43 0 -8 -12 -22
-26 -32 -20 -13 -23 -19 -14 -30 13 -16 4 -158 -11 -163 -5 -2 -9 -8 -9 -13 0
-4 7 -6 15 -3 10 4 15 0 15 -10 0 -27 -83 -108 -152 -150 -72 -43 -40 -39 40
6 28 16 52 26 52 22 0 -4 -11 -26 -25 -49 -34 -59 -118 -130 -184 -156 -31
-12 -70 -32 -86 -44 -17 -13 -51 -25 -75 -27 -25 -3 -77 -11 -117 -18 -40 -8
-76 -11 -79 -7 -9 9 42 111 74 149 14 17 34 28 50 29 25 1 25 1 -6 10 l-33 10
28 28 c15 15 85 80 155 145 119 109 129 116 150 105 13 -7 41 -18 63 -24 l39
-12 -64 -48 c-78 -57 -149 -93 -253 -130 -43 -15 -76 -30 -73 -32 16 -16 286
71 286 93 0 8 6 11 15 7 9 -3 15 -1 13 3 -2 5 14 25 34 44 59 56 55 67 -35
106 -42 18 -92 47 -110 64 -29 27 -47 37 -47 25 0 -2 20 -20 45 -39 l45 -34
-34 -21 c-87 -54 -251 -91 -394 -90 l-97 1 48 20 c64 28 60 43 -5 17 -29 -12
-62 -25 -73 -29 -17 -6 -14 -9 20 -18 78 -21 160 -32 232 -32 40 0 73 -2 73
-4 0 -2 -25 -44 -56 -92 -30 -49 -82 -136 -115 -194 -54 -95 -73 -117 -203
-240 -78 -74 -141 -137 -140 -139 5 -6 166 30 220 50 29 11 75 35 101 52 42
29 49 40 77 119 30 86 31 87 69 93 21 4 40 5 43 3 8 -9 -27 -123 -54 -172 -15
-27 -48 -73 -75 -100 l-47 -51 16 42 c9 23 14 48 12 55 -3 7 -16 -19 -31 -57
-15 -38 -25 -71 -22 -73 6 -7 96 62 136 105 75 80 83 99 80 185 -2 70 0 78 16
78 10 0 27 3 39 6 20 5 21 2 17 -53 -5 -72 -33 -187 -43 -176 -5 4 -10 17 -13
28 -3 11 -5 -4 -6 -32 0 -29 3 -53 7 -53 11 0 78 135 91 185 6 22 11 56 11 76
0 35 1 36 81 68 133 54 241 174 278 306 6 22 18 103 26 179 18 159 28 180 82
174 40 -5 42 6 6 29 -16 9 -41 27 -56 40 -36 29 -88 30 -145 2z m-312 -399
c-27 -21 -66 -27 -55 -9 8 12 43 28 65 28 10 0 6 -6 -10 -19z m-24 -56 c-25
-18 -56 -18 -56 0 0 9 12 16 33 18 41 4 47 0 23 -18z m-180 -382 c-36 -70
-147 -161 -259 -212 -106 -48 -118 -47 -51 6 109 88 195 169 209 195 11 20 26
29 62 36 26 5 49 8 51 7 2 -1 -3 -15 -12 -32z"/>
<path d="M1119 1396 c-2 -2 -51 -6 -108 -9 -57 -3 -105 -8 -107 -10 -7 -6 151
-96 224 -127 39 -17 107 -39 150 -49 l80 -19 151 61 c83 34 151 65 151 70 0 5
-10 6 -22 3 -126 -37 -180 -46 -267 -46 -106 0 -242 25 -342 61 l-64 24 100 6
c100 6 135 13 135 30 0 9 -72 13 -81 5z m281 -161 c-32 -18 -58 -18 -90 0 -23
13 -21 14 45 14 66 0 68 -1 45 -14z"/>
<path d="M1790 1361 c0 -23 171 -43 184 -23 3 5 -16 7 -42 5 -26 -2 -68 2 -94
10 -27 8 -48 12 -48 8z"/>
<path d="M1563 914 c7 -8 87 -7 95 0 3 3 -19 6 -48 6 -29 0 -51 -3 -47 -6z"/>
<path d="M768 3 c409 -2 1075 -2 1480 0 405 1 71 2 -743 2 -814 0 -1146 -1
-737 -2z"/>
</g>
</svg>
